<svg xmlns="http://www.w3.org/2000/svg" width="22" height="22" viewBox="0 0 22 22">
  <path id="Phone" d="M6.418,11.6A21.631,21.631,0,0,0,17.624,22.49l.016.007.959.428A2.825,2.825,0,0,0,22.04,22l1.6-2.217a.314.314,0,0,0-.057-.429L20.789,17.1a.314.314,0,0,0-.45.057l-1.087,1.468a.942.942,0,0,1-1.145.3,16.821,16.821,0,0,1-8.378-8.383.943.943,0,0,1,.3-1.146L11.493,8.3a.314.314,0,0,0,.057-.45L9.3,5.057A.314.314,0,0,0,8.868,5L6.641,6.608a2.829,2.829,0,0,0-.919,3.463l.7,1.53ZM16.88,24.222A23.515,23.515,0,0,1,4.7,12.388v0l-.7-1.533A4.715,4.715,0,0,1,5.538,5.08L7.765,3.471a2.2,2.2,0,0,1,3,.4l2.255,2.8a2.2,2.2,0,0,1-.4,3.148l-.841.624A14.941,14.941,0,0,0,18.2,16.873l.623-.841a2.2,2.2,0,0,1,3.146-.4l2.794,2.256a2.2,2.2,0,0,1,.4,3l-1.6,2.217a4.708,4.708,0,0,1-5.735,1.545Z" transform="translate(-3.584 -3.055)" fill="#fff" fill-rule="evenodd"/>
</svg>
